<svg width="117" height="32" viewBox="0 0 117 32" fill="none" xmlns="http://www.w3.org/2000/svg">
<path d="M16.4173 3.56738C9.42577 3.56738 3.74512 9.13703 3.74512 15.992C3.74512 22.8469 9.42577 28.4166 16.4173 28.4166C23.4089 28.4166 29.0895 22.8469 29.0895 15.992C29.0895 9.13703 23.4288 3.56738 16.4173 3.56738ZM13.0209 5.32007C14.0934 4.98901 15.2256 4.81374 16.4173 4.81374C17.6488 4.81374 18.8405 5.00848 19.9528 5.35902C19.2179 5.84587 18.7015 6.52747 18.4234 7.3454C17.9467 8.76702 18.4433 10.0718 18.9001 11.2013L18.9399 11.3182C19.1981 11.9998 19.3172 12.8566 18.6618 13.4603C18.3837 13.2266 18.0858 13.0319 17.7283 12.8761C17.8276 11.4739 16.9933 10.2471 15.4043 9.52652L15.2852 9.46809C14.2325 9.00071 13.3188 8.59175 12.8818 7.75436C12.3853 6.81959 12.6633 5.94325 13.001 5.33954L13.0209 5.32007ZM18.2248 15.953C18.2248 16.9267 17.4303 17.7057 16.4372 17.7057C15.4441 17.7057 14.6496 16.9267 14.6496 15.953C14.6496 14.9793 15.4441 14.2003 16.4372 14.2003C17.4303 14.2003 18.2248 14.9988 18.2248 15.953ZM11.0743 6.11852C10.9353 6.93644 11.0743 7.75436 11.4716 8.49438C12.1866 9.81863 13.4777 10.4029 14.6297 10.9092L14.7489 10.9676C15.4242 11.2597 16.1393 11.7855 16.1591 12.6424C15.7817 12.6619 15.4242 12.7592 15.0866 12.8956C14.1332 11.8245 12.6435 11.5129 10.9949 12.0777L10.8559 12.1166C9.78329 12.5061 8.84976 12.8371 7.89636 12.5256C6.94296 12.2334 6.46627 11.4934 6.24778 10.9092C7.32035 8.90334 8.98879 7.20908 11.0743 6.11852ZM5.53273 19.2831C5.21494 18.251 5.03617 17.141 5.03617 15.992C5.03617 14.8819 5.21494 13.7914 5.51287 12.7787C6.00943 13.3824 6.66489 13.8109 7.41966 14.0446C8.88948 14.5119 10.2203 14.0446 11.412 13.6161L11.551 13.5772C12.2661 13.324 13.1798 13.2072 13.8352 13.8693C13.6167 14.1224 13.438 14.4146 13.3188 14.7262C11.8291 14.5898 10.5182 15.3688 9.78329 16.9267L9.7237 17.0436C9.247 18.0368 8.82989 18.9131 7.95595 19.3416C7.06214 19.77 6.16833 19.5558 5.59232 19.3026L5.53273 19.2831ZM10.9552 25.7876C8.96893 24.7165 7.34021 23.0806 6.28751 21.0942C6.46627 21.1137 6.64503 21.1332 6.82379 21.1332C7.45939 21.1332 8.05526 20.9969 8.63127 20.7242C10.0216 20.0621 10.6175 18.7963 11.1339 17.7057L11.1935 17.5889C11.5113 16.9268 12.0873 16.2062 13.0606 16.2646C13.1003 16.5957 13.1798 16.9267 13.2989 17.2189C12.1469 18.1342 11.8093 19.5947 12.4449 21.2111L12.4846 21.3474C12.8818 22.3796 13.2393 23.2754 12.9414 24.1712C12.6038 25.1644 11.7497 25.5928 11.0743 25.7876H10.9552ZM19.8535 26.6444C18.7611 26.9755 17.6091 27.1702 16.4173 27.1702C15.2057 27.1702 14.014 26.9755 12.9215 26.6249C13.6565 26.1381 14.1729 25.4565 14.451 24.6386C14.9277 23.2169 14.4311 21.9122 13.9743 20.7827L13.9345 20.6658C13.6763 19.9842 13.5373 19.1079 14.2523 18.4847C14.5304 18.7184 14.8283 18.8937 15.1461 19.03C15.0071 20.4516 15.8413 21.7174 17.47 22.438L17.5892 22.4964C18.6419 22.9638 19.5556 23.3727 19.9926 24.2101C20.4891 25.1449 20.2111 26.0212 19.8734 26.6249C19.8933 26.6055 19.8933 26.6444 19.8535 26.6444ZM21.8199 25.8265C21.9391 25.0086 21.8 24.2101 21.4227 23.4701C20.7076 22.1459 19.4166 21.5616 18.2645 21.0553L18.1454 20.9969C17.4502 20.6853 16.7153 20.14 16.7351 19.2442C17.0927 19.2052 17.4303 19.1273 17.7481 19.0105C18.7015 20.1205 20.2111 20.4711 21.8795 19.8868L22.0185 19.8479C23.0911 19.4584 24.0246 19.1273 24.978 19.4389C25.9116 19.731 26.3883 20.4321 26.6067 21.0163C25.554 23.0417 23.8856 24.7359 21.8199 25.8265ZM27.8184 15.992C27.8184 17.102 27.6595 18.1731 27.3417 19.1858C26.8451 18.6015 26.2095 18.1731 25.4547 17.9394C23.9849 17.472 22.6541 17.9394 21.4624 18.3678L21.3233 18.4068C20.5884 18.66 19.6549 18.7768 18.9994 18.0757C19.2179 17.8226 19.3768 17.5499 19.5159 17.2578C19.6549 17.2773 19.7741 17.2773 19.8933 17.2773C21.2439 17.2773 22.3959 16.4788 23.0911 15.0572L23.1507 14.9404C23.6274 13.9472 24.0445 13.0708 24.9184 12.6424C25.8123 12.214 26.7061 12.4087 27.3019 12.6814C27.6396 13.733 27.8184 14.843 27.8184 15.992ZM24.2431 11.2597C22.8528 11.9219 22.2569 13.1877 21.7405 14.2782L21.6809 14.3951C21.3631 15.0767 20.7871 15.7972 19.7939 15.7193C19.7741 15.3883 19.6946 15.0572 19.5755 14.7651C20.7275 13.8498 21.0651 12.3892 20.4295 10.7729L20.37 10.6366C19.9727 9.60441 19.6152 8.7086 19.9131 7.81278C20.2508 6.81959 21.1049 6.39116 21.7802 6.19641L21.8596 6.17694C23.8459 7.24802 25.4746 8.88387 26.5273 10.8702C25.7527 10.7729 24.9582 10.9092 24.2431 11.2597Z" fill="#303732"/>
<path d="M16.4167 0.15918C7.49847 0.15918 0.268555 7.24782 0.268555 15.9918C0.268555 24.7357 7.49847 31.8244 16.4167 31.8244C25.3349 31.8244 32.5648 24.7357 32.5648 15.9918C32.5648 7.24782 25.3349 0.15918 16.4167 0.15918ZM16.4167 29.8185C8.63063 29.8185 2.29452 23.6062 2.29452 15.9723C2.29452 8.33838 8.65049 2.14556 16.4167 2.14556C24.2028 2.14556 30.5389 8.35786 30.5389 15.9918C30.5389 23.6257 24.2028 29.8185 16.4167 29.8185Z" fill="#303732"/>
<path d="M29.8437 2.94435C28.3342 1.44483 26.3877 0.354269 24.6398 0.00373134C24.5405 -0.015743 24.4213 0.0426794 24.3816 0.140051C24.3419 0.237422 24.4014 0.354269 24.5008 0.393217C26.1493 1.13324 27.7582 2.24328 29.1287 3.60648C30.5191 4.98915 31.6512 6.56657 32.3861 8.20241C32.4259 8.28031 32.5053 8.33873 32.5848 8.33873C32.6046 8.33873 32.6245 8.33873 32.6443 8.31926C32.7437 8.28031 32.8231 8.18294 32.7834 8.06609C32.4259 6.29393 31.3731 4.44387 29.8437 2.94435Z" fill="#303732"/>
<path d="M8.29307 31.572C6.64449 30.832 5.03563 29.722 3.66513 28.3588C2.27476 26.9761 1.1426 25.3987 0.407695 23.7628C0.36797 23.6655 0.248795 23.607 0.149483 23.646C0.0501711 23.6849 -0.0292779 23.7823 0.0104469 23.8992C0.387833 25.7103 1.44054 27.5408 2.96994 29.0598C4.47949 30.5594 6.426 31.6499 8.17389 32.0005C8.19376 32.0005 8.19376 32.0005 8.21362 32.0005C8.31293 32.0005 8.39238 31.942 8.41224 31.8447C8.45197 31.7278 8.39238 31.611 8.29307 31.572Z" fill="#303732"/>
<path d="M45.575 9.70215H39.6163C39.4177 9.70215 39.2588 9.85794 39.2588 10.0527V22.0489C39.2588 22.2436 39.4177 22.3994 39.6163 22.3994H40.8081C41.0067 22.3994 41.1656 22.2436 41.1656 22.0489V16.9466H45.0189C45.2175 16.9466 45.3764 16.7908 45.3764 16.596V15.4276C45.3764 15.2328 45.2175 15.0771 45.0189 15.0771H41.1656V11.5327H45.575C45.7737 11.5327 45.9326 11.3769 45.9326 11.1822V10.0137C45.9326 9.83847 45.7737 9.70215 45.575 9.70215Z" fill="#303732"/>
<path d="M54.7713 20.5298H50.3619V10.0332C50.3619 9.83841 50.203 9.68262 50.0043 9.68262H48.8126C48.614 9.68262 48.4551 9.83841 48.4551 10.0332V22.0293C48.4551 22.2241 48.614 22.3799 48.8126 22.3799H54.7713C54.97 22.3799 55.1288 22.2241 55.1288 22.0293V20.8609C55.109 20.6856 54.9501 20.5298 54.7713 20.5298Z" fill="#303732"/>
<path d="M63.0931 9.64355H61.7623C61.6432 9.64355 61.524 9.72145 61.4644 9.81882L58.7631 14.7069L56.0221 9.81882C55.9625 9.70198 55.8434 9.64355 55.7242 9.64355H54.3934C54.2742 9.64355 54.1551 9.70198 54.0955 9.81882C54.0359 9.9162 54.0359 10.0525 54.0955 10.1499L57.8097 16.849V22.0292C57.8097 22.2239 57.9686 22.3797 58.1673 22.3797H59.359C59.5576 22.3797 59.7165 22.2239 59.7165 22.0292V16.9659L63.4308 10.1304C63.4904 10.033 63.4904 9.89672 63.4308 9.79935C63.3315 9.72145 63.2123 9.64355 63.0931 9.64355Z" fill="#303732"/>
<path d="M116.642 20.5298H112.233V10.0332C112.233 9.83841 112.074 9.68262 111.875 9.68262H110.684C110.485 9.68262 110.326 9.83841 110.326 10.0332V22.0293C110.326 22.2241 110.485 22.3799 110.684 22.3799H116.642C116.841 22.3799 117 22.2241 117 22.0293V20.8609C117 20.6856 116.841 20.5298 116.642 20.5298Z" fill="#303732"/>
<path d="M88.1405 9.70215H86.9488C86.7502 9.70215 86.5913 9.85794 86.5913 10.0527V15.0965H82.3208V10.0527C82.3208 9.85794 82.162 9.70215 81.9633 9.70215H80.7716C80.573 9.70215 80.4141 9.85794 80.4141 10.0527V22.0489C80.4141 22.2436 80.573 22.3994 80.7716 22.3994H81.9633C82.162 22.3994 82.3208 22.2436 82.3208 22.0489V16.9466H86.5913V22.0489C86.5913 22.2436 86.7502 22.3994 86.9488 22.3994H88.1405C88.3392 22.3994 88.4981 22.2436 88.4981 22.0489V10.0527C88.4782 9.83847 88.3193 9.70215 88.1405 9.70215Z" fill="#303732"/>
<path d="M97.7336 9.70215H91.6954C91.4968 9.70215 91.3379 9.85794 91.3379 10.0527V22.0489C91.3379 22.2436 91.4968 22.3994 91.6954 22.3994H97.7336C97.9322 22.3994 98.0911 22.2436 98.0911 22.0489V20.8804C98.0911 20.6857 97.9322 20.5299 97.7336 20.5299H93.2447V16.9466H97.1576C97.3562 16.9466 97.5151 16.7908 97.5151 16.596V15.4276C97.5151 15.2328 97.3562 15.0771 97.1576 15.0771H93.2447V11.5327H97.7336C97.9322 11.5327 98.0911 11.3769 98.0911 11.1822V10.0137C98.0911 9.83847 97.9322 9.70215 97.7336 9.70215Z" fill="#303732"/>
<path d="M107.248 9.70215H101.23C101.031 9.70215 100.872 9.85794 100.872 10.0527V22.0489C100.872 22.2436 101.031 22.3994 101.23 22.3994H107.268C107.466 22.3994 107.625 22.2436 107.625 22.0489V20.8804C107.625 20.6857 107.466 20.5299 107.268 20.5299H102.779V16.9466H106.712C106.91 16.9466 107.069 16.7908 107.069 16.596V15.4276C107.069 15.2328 106.91 15.0771 106.712 15.0771H102.779V11.5327H107.268C107.466 11.5327 107.625 11.3769 107.625 11.1822V10.0137C107.605 9.83847 107.447 9.70215 107.248 9.70215Z" fill="#303732"/>
<path d="M78.0099 9.68256H76.699C76.5798 9.68256 76.4805 9.76046 76.4607 9.8773L74.4546 18.3681L72.4087 9.85783C72.3889 9.74098 72.2896 9.66309 72.1704 9.66309H70.8396C70.7204 9.66309 70.6211 9.74098 70.6012 9.85783L68.5554 18.3486L66.5493 9.85783C66.5295 9.74098 66.4301 9.66309 66.311 9.66309H65C64.9206 9.66309 64.861 9.70203 64.8014 9.76046C64.7617 9.81888 64.7418 9.89678 64.7617 9.97467L67.6616 22.1851C67.6616 22.224 67.6815 22.263 67.7212 22.3019C67.7609 22.3603 67.8404 22.3993 67.9198 22.3993H69.2307C69.3499 22.3993 69.4492 22.3214 69.4691 22.2045L71.5348 13.6748L73.5806 22.2045C73.6005 22.3214 73.6998 22.3993 73.819 22.3993H75.1299C75.2491 22.3993 75.3484 22.3214 75.3682 22.2045L78.2681 9.97467C78.288 9.89678 78.2681 9.81888 78.2284 9.76046C78.149 9.72151 78.0695 9.68256 78.0099 9.68256Z" fill="#303732"/>
</svg>
