<svg width="24" height="13" viewBox="0 0 24 13" fill="none" xmlns="http://www.w3.org/2000/svg">
<path d="M4.104 2.776H0.072V0.399999H11.052V2.776H7.02V13H4.104V2.776ZM18.075 0.399999C19.191 0.399999 20.157 0.585999 20.973 0.957999C21.801 1.33 22.437 1.858 22.881 2.542C23.325 3.226 23.547 4.036 23.547 4.972C23.547 5.896 23.325 6.706 22.881 7.402C22.437 8.086 21.801 8.614 20.973 8.986C20.157 9.346 19.191 9.526 18.075 9.526H15.537V13H12.621V0.399999H18.075ZM17.913 7.15C18.789 7.15 19.455 6.964 19.911 6.592C20.367 6.208 20.595 5.668 20.595 4.972C20.595 4.264 20.367 3.724 19.911 3.352C19.455 2.968 18.789 2.776 17.913 2.776H15.537V7.15H17.913Z" fill="#ECEFF4"/>
</svg>
