<svg width="61" height="109" viewBox="0 0 61 109" fill="none" xmlns="http://www.w3.org/2000/svg" class="logo">
<path d="M13.376 43.912H0.256V32.2H41.6V43.912H28.48V77H13.376V43.912Z" fill="#FD7014"/>
<path d="M38.216 32.2C42.3547 32.2 45.96 32.8827 49.032 34.248C52.104 35.6133 54.472 37.576 56.136 40.136C57.8 42.696 58.632 45.6827 58.632 49.096C58.632 52.5093 57.8 55.496 56.136 58.056C54.472 60.616 52.104 62.5787 49.032 63.944C45.96 65.3093 42.3547 65.992 38.216 65.992H31.752V77H16.648V32.2H38.216ZM37.256 54.344C39.304 54.344 40.84 53.896 41.864 53C42.888 52.0613 43.4 50.76 43.4 49.096C43.4 47.432 42.888 46.152 41.864 45.256C40.84 44.3173 39.304 43.848 37.256 43.848H31.752V54.344H37.256Z" fill="#FD7014"/>
</svg>
