<svg width="55" height="55" viewBox="0 0 55 55" fill="none" xmlns="http://www.w3.org/2000/svg">
<rect x="13" y="26" width="3" height="3" rx="1.5" fill="#4C566A"/>
<rect y="39" width="3" height="3" rx="1.5" fill="#4C566A"/>
<rect x="13" y="39" width="3" height="3" rx="1.5" fill="#4C566A"/>
<rect x="26" width="3" height="3" rx="1.5" fill="#4C566A"/>
<rect x="39" width="3" height="3" rx="1.5" fill="#4C566A"/>
<rect x="26" y="13" width="3" height="3" rx="1.5" fill="#4C566A"/>
<rect x="39" y="13" width="3" height="3" rx="1.5" fill="#4C566A"/>
<rect x="52" y="13" width="3" height="3" rx="1.5" fill="#4C566A"/>
<rect x="26" y="26" width="3" height="3" rx="1.5" fill="#4C566A"/>
<rect x="26" y="39" width="3" height="3" rx="1.5" fill="#4C566A"/>
<rect x="39" y="39" width="3" height="3" rx="1.5" fill="#4C566A"/>
<rect x="52" y="39" width="3" height="3" rx="1.5" fill="#4C566A"/>
<rect y="52" width="3" height="3" rx="1.5" fill="#4C566A"/>
<rect x="26" y="52" width="3" height="3" rx="1.5" fill="#4C566A"/>
<rect x="39" y="52" width="3" height="3" rx="1.5" fill="#4C566A"/>
</svg>
