<svg width="81" height="133" viewBox="0 0 81 133" fill="none" xmlns="http://www.w3.org/2000/svg">
<rect x="68" y="42" width="3" height="3" rx="1.5" transform="rotate(-180 68 42)" fill="#4C566A"/>
<rect x="81" y="29" width="3" height="3" rx="1.5" transform="rotate(-180 81 29)" fill="#4C566A"/>
<rect x="68" y="29" width="3" height="3" rx="1.5" transform="rotate(-180 68 29)" fill="#4C566A"/>
<rect x="55" y="68" width="3" height="3" rx="1.5" transform="rotate(-180 55 68)" fill="#4C566A"/>
<rect x="42" y="68" width="3" height="3" rx="1.5" transform="rotate(-180 42 68)" fill="#4C566A"/>
<rect x="55" y="55" width="3" height="3" rx="1.5" transform="rotate(-180 55 55)" fill="#4C566A"/>
<rect x="42" y="55" width="3" height="3" rx="1.5" transform="rotate(-180 42 55)" fill="#4C566A"/>
<rect x="29" y="55" width="3" height="3" rx="1.5" transform="rotate(-180 29 55)" fill="#4C566A"/>
<rect x="55" y="42" width="3" height="3" rx="1.5" transform="rotate(-180 55 42)" fill="#4C566A"/>
<rect x="55" y="29" width="3" height="3" rx="1.5" transform="rotate(-180 55 29)" fill="#4C566A"/>
<rect x="42" y="29" width="3" height="3" rx="1.5" transform="rotate(-180 42 29)" fill="#4C566A"/>
<rect x="29" y="29" width="3" height="3" rx="1.5" transform="rotate(-180 29 29)" fill="#4C566A"/>
<rect x="81" y="16" width="3" height="3" rx="1.5" transform="rotate(-180 81 16)" fill="#4C566A"/>
<rect x="55" y="16" width="3" height="3" rx="1.5" transform="rotate(-180 55 16)" fill="#4C566A"/>
<rect x="55" y="3" width="3" height="3" rx="1.5" transform="rotate(-180 55 3)" fill="#4C566A"/>
<rect x="42" y="16" width="3" height="3" rx="1.5" transform="rotate(-180 42 16)" fill="#4C566A"/>
<rect x="26" y="120" width="3" height="3" rx="1.5" transform="rotate(-90 26 120)" fill="#4C566A"/>
<rect x="39" y="133" width="3" height="3" rx="1.5" transform="rotate(-90 39 133)" fill="#4C566A"/>
<rect x="39" y="120" width="3" height="3" rx="1.5" transform="rotate(-90 39 120)" fill="#4C566A"/>
<rect y="107" width="3" height="3" rx="1.5" transform="rotate(-90 0 107)" fill="#4C566A"/>
<rect y="94" width="3" height="3" rx="1.5" transform="rotate(-90 0 94)" fill="#4C566A"/>
<rect x="13" y="107" width="3" height="3" rx="1.5" transform="rotate(-90 13 107)" fill="#4C566A"/>
<rect x="13" y="94" width="3" height="3" rx="1.5" transform="rotate(-90 13 94)" fill="#4C566A"/>
<rect x="13" y="81" width="3" height="3" rx="1.5" transform="rotate(-90 13 81)" fill="#4C566A"/>
<rect x="26" y="107" width="3" height="3" rx="1.5" transform="rotate(-90 26 107)" fill="#4C566A"/>
<rect x="39" y="107" width="3" height="3" rx="1.5" transform="rotate(-90 39 107)" fill="#4C566A"/>
<rect x="39" y="94" width="3" height="3" rx="1.5" transform="rotate(-90 39 94)" fill="#4C566A"/>
<rect x="39" y="81" width="3" height="3" rx="1.5" transform="rotate(-90 39 81)" fill="#4C566A"/>
<rect x="52" y="133" width="3" height="3" rx="1.5" transform="rotate(-90 52 133)" fill="#4C566A"/>
<rect x="52" y="107" width="3" height="3" rx="1.5" transform="rotate(-90 52 107)" fill="#4C566A"/>
<rect x="52" y="94" width="3" height="3" rx="1.5" transform="rotate(-90 52 94)" fill="#4C566A"/>
</svg>
