<svg width="92" height="52" viewBox="0 0 92 52" fill="none" xmlns="http://www.w3.org/2000/svg">
<path d="M82.0624 37.5354H82.293C82.3737 37.5354 82.4314 37.5466 82.466 37.5802C82.5006 37.6138 82.5121 37.6585 82.5121 37.7257V37.9383H82.7081V37.7033C82.7081 37.6362 82.6966 37.5914 82.6735 37.5466C82.6505 37.5019 82.6043 37.4795 82.5582 37.4571C82.6159 37.4347 82.662 37.4123 82.6851 37.3676C82.7081 37.3228 82.7312 37.278 82.7312 37.2109C82.7312 37.1102 82.6966 37.0318 82.6389 36.9871C82.5698 36.9423 82.4775 36.9199 82.3391 36.9199H81.8779V37.9383H82.0624V37.5354ZM82.0624 37.0766H82.293C82.3853 37.0766 82.4429 37.0878 82.4775 37.1102C82.5121 37.1326 82.5352 37.1773 82.5352 37.2221C82.5352 37.278 82.5121 37.3228 82.4775 37.3452C82.4429 37.3676 82.3737 37.3788 82.293 37.3788H82.0624V37.0766Z" fill="#303732"/>
<path d="M81.4958 37.8267C81.5534 37.9722 81.6572 38.0841 81.7955 38.1625C81.9339 38.2408 82.0953 38.2744 82.2798 38.2744C82.4643 38.2744 82.6373 38.2408 82.7641 38.1625C82.9025 38.0841 83.0062 37.9722 83.0639 37.8267C83.087 37.7708 83.11 37.7148 83.1215 37.6477C83.1331 37.5917 83.1331 37.5134 83.1331 37.4351C83.1331 37.3567 83.1215 37.2784 83.1215 37.2224C83.11 37.1665 83.087 37.0993 83.0639 37.0434C82.9947 36.8979 82.9025 36.786 82.7641 36.7076C82.6373 36.6293 82.4643 36.5957 82.2798 36.5957C82.0953 36.5957 81.9224 36.6293 81.7955 36.7076C81.6572 36.786 81.5534 36.8979 81.4958 37.0322C81.4727 37.0881 81.4496 37.1441 81.4381 37.2112C81.4266 37.2784 81.415 37.3455 81.415 37.4239C81.415 37.5022 81.4266 37.5693 81.4381 37.6365C81.4496 37.7036 81.4727 37.7708 81.4958 37.8267ZM81.588 37.2448C81.5995 37.1888 81.6111 37.1441 81.6341 37.0881C81.6918 36.965 81.7725 36.8755 81.8763 36.8195C81.98 36.7636 82.1184 36.73 82.2913 36.73C82.4528 36.73 82.5796 36.7636 82.6949 36.8195C82.8102 36.8755 82.8909 36.9762 82.9371 37.0881C82.9601 37.1329 82.9716 37.1888 82.9832 37.2448C82.9947 37.3008 83.0062 37.3679 83.0062 37.4351C83.0062 37.5022 82.9947 37.5693 82.9832 37.6141C82.9716 37.6701 82.9601 37.726 82.9371 37.7708C82.8794 37.8939 82.7987 37.9834 82.6949 38.0394C82.5911 38.0953 82.4528 38.1289 82.2913 38.1289C82.1299 38.1289 81.9916 38.0953 81.8878 38.0394C81.7725 37.9722 81.6918 37.8827 81.6456 37.7708C81.6226 37.726 81.6111 37.6701 81.5995 37.6141C81.588 37.5582 81.588 37.5022 81.588 37.4351C81.5649 37.3567 81.5765 37.2896 81.588 37.2448Z" fill="#303732"/>
<path d="M83.5484 6.89385C81.3461 4.90179 78.7864 3.26786 75.9845 2.09277C75.9614 2.08158 75.9383 2.07039 75.9037 2.0592C75.7538 2.00324 75.604 1.9361 75.4541 1.88014C75.4079 1.85776 75.3618 1.84657 75.3272 1.82418C75.1889 1.76823 75.039 1.72346 74.9006 1.66751C74.8429 1.64512 74.7968 1.62274 74.7392 1.61155C74.6008 1.56678 74.474 1.52202 74.3356 1.46606C74.2664 1.44368 74.2088 1.4213 74.1396 1.39891C74.0128 1.35415 73.8859 1.30938 73.7476 1.27581C73.6784 1.25343 73.5977 1.23104 73.5285 1.20866C73.4016 1.17509 73.2748 1.13032 73.1595 1.09675C73.0788 1.07437 72.9981 1.05198 72.9174 1.0296C72.8021 0.996027 72.6752 0.962453 72.5599 0.928879C72.4677 0.906496 72.387 0.884113 72.3062 0.861731C72.1909 0.828157 72.0756 0.805774 71.9488 0.772201C71.8566 0.749818 71.7643 0.727435 71.6721 0.705052C71.5568 0.68267 71.4415 0.649096 71.3262 0.626713C71.2339 0.604331 71.1417 0.581948 71.0379 0.570757C70.9226 0.548374 70.8073 0.525992 70.7035 0.503609C70.5997 0.481226 70.5075 0.470035 70.4037 0.447652C70.3 0.42527 70.1846 0.414078 70.0693 0.391696C69.9656 0.369313 69.8618 0.358122 69.758 0.335739C69.6542 0.324548 69.5389 0.302165 69.4352 0.290974C69.3314 0.268591 69.2161 0.2574 69.1123 0.246209C69.0085 0.235018 68.9048 0.212635 68.801 0.201443C68.6857 0.190252 68.5704 0.179061 68.4551 0.16787C68.3513 0.156678 68.2475 0.145487 68.1438 0.134296C68.0285 0.123104 67.9016 0.111913 67.7863 0.100722C67.6941 0.0895306 67.5903 0.0895306 67.4981 0.0783392C67.3712 0.0671479 67.2444 0.0559565 67.106 0.0559565C67.0138 0.0559565 66.9215 0.0447654 66.8293 0.0447654C66.6794 0.0335741 66.541 0.033574 66.3911 0.0223827C66.3104 0.0223827 66.2412 0.0111911 66.1605 0.0111911C65.9414 -1.70933e-07 65.7224 0 65.4918 0C65.1343 0 64.7769 8.50494e-08 64.4194 0.0223827C64.3041 0.0223827 64.1773 0.0335741 64.062 0.0447654C63.8314 0.0559567 63.5892 0.0671478 63.3586 0.0895304C63.2203 0.100722 63.0704 0.111913 62.932 0.134296C62.7244 0.156678 62.5169 0.16787 62.2978 0.201443C62.1479 0.223826 61.998 0.235017 61.8481 0.2574C61.6521 0.279783 61.4561 0.313356 61.2601 0.34693C61.1102 0.369313 60.9488 0.402887 60.7989 0.42527C60.6028 0.458844 60.4184 0.492418 60.2223 0.525992C60.0609 0.559566 59.911 0.593139 59.7611 0.626713C59.5766 0.660287 59.3922 0.705053 59.2077 0.749818C59.0462 0.783392 58.8963 0.828157 58.7464 0.861731C58.562 0.906496 58.389 0.951261 58.2045 1.00722C58.0431 1.05198 57.8932 1.09675 57.7433 1.14151C57.5703 1.19747 57.3974 1.24224 57.2244 1.29819C57.0745 1.34296 56.9131 1.39891 56.7632 1.45487C56.5903 1.51083 56.4288 1.56678 56.2559 1.63393C56.106 1.68989 55.9561 1.74584 55.8062 1.8018C55.6448 1.86895 55.4718 1.9361 55.3104 1.99205C55.1605 2.0592 55.0106 2.11516 54.8607 2.18231C54.6993 2.24945 54.5378 2.3166 54.3764 2.39494C54.2265 2.46209 54.0766 2.52924 53.9267 2.59638C53.7653 2.67472 53.6154 2.74187 53.454 2.82021C53.3041 2.88736 53.1657 2.9657 53.0158 3.04404C52.8659 3.12238 52.7045 3.20071 52.5546 3.29025C52.4162 3.36858 52.2663 3.44692 52.128 3.52526C51.9781 3.61479 51.8282 3.69313 51.6783 3.78266C51.5399 3.87219 51.4016 3.95053 51.2632 4.04006C51.1133 4.12959 50.9749 4.21912 50.8366 4.31985C50.6982 4.40938 50.5598 4.49891 50.4215 4.58844C50.2831 4.67797 50.1447 4.77869 50.0064 4.87941C49.8795 4.96894 49.7412 5.06966 49.6028 5.15919C49.4644 5.25992 49.3376 5.36064 49.1992 5.46136C49.0724 5.56208 48.934 5.6628 48.8072 5.76352C48.6688 5.86425 48.542 5.97616 48.4152 6.07688C48.2883 6.1776 48.1615 6.28952 48.0347 6.39024C47.9078 6.50215 47.781 6.61406 47.6542 6.72598C47.5273 6.8267 47.412 6.93861 47.2852 7.05052C47.1584 7.16244 47.043 7.27435 46.9162 7.39746C46.8009 7.50937 46.6741 7.62128 46.5588 7.73319C46.4435 7.84511 46.3282 7.96821 46.2013 8.09132C46.086 8.20323 45.9707 8.32633 45.8669 8.43825C45.7516 8.56135 45.6363 8.68446 45.5326 8.80756C45.4173 8.93066 45.3135 9.04258 45.2097 9.16568C45.1059 9.29998 44.9906 9.42308 44.8869 9.55738C44.7831 9.68048 44.6793 9.80359 44.5755 9.92669C44.4602 10.0722 44.3449 10.2289 44.2296 10.3855C44.0567 10.6094 43.8837 10.8556 43.7108 11.0906C43.607 11.2249 43.5147 11.3704 43.411 11.5047C43.3187 11.639 43.2265 11.7844 43.1458 11.9187C43.0535 12.053 42.9613 12.1985 42.869 12.3328C42.7768 12.4671 42.6961 12.6126 42.6154 12.7581C42.5231 12.9036 42.4424 13.0379 42.3617 13.1834C42.281 13.3288 42.2003 13.4743 42.1196 13.6198C42.0388 13.7653 41.9581 13.9108 41.8889 14.0563C41.8082 14.2018 41.739 14.3473 41.6583 14.5039C41.5892 14.6494 41.5084 14.7949 41.4393 14.9516C41.3701 15.0971 41.3009 15.2538 41.2317 15.3992C41.1625 15.5559 41.0933 15.7014 41.0242 15.8581C40.955 16.0148 40.8973 16.1714 40.8397 16.3169C40.7936 16.4288 40.7474 16.5408 40.7013 16.6527H44.6908C48.2768 8.91947 56.2559 3.55884 65.5033 3.55884C72.0295 3.55884 77.9216 6.23356 82.0956 10.5086C82.3954 9.7812 82.6836 9.06496 82.9719 8.35991C87.6302 12.7693 90.5243 18.9245 90.5243 25.7288C90.5243 38.4086 80.4467 48.8501 67.671 49.9132C67.2098 49.9468 59.1961 50.3721 52.5315 45.7165C44.4948 40.0873 43.3879 33.1039 43.2265 31.47H81.4845V31.4588C82.6836 31.3357 83.7675 28.135 84.321 26.736L87.7225 18.253H84.2633C83.8252 18.2306 83.6176 18.3985 83.4216 18.8909C82.8451 20.3682 81.4038 23.8263 80.8157 25.2924C80.5275 26.0198 80.0893 26.4003 79.4436 26.3443C78.9017 26.2996 78.7748 26.0198 79.0285 25.3931C79.2706 24.7887 81.9342 18.2418 81.9342 18.2418H76.3419L77.6333 19.0364C76.7685 21.0956 75.2811 24.6768 74.5316 26.5794C74.301 27.1725 74.4394 27.5866 75.0274 27.5866H79.8472C79.3629 28.9967 79.4782 30.127 78.4289 30.1494L36.9424 30.1382L39.8365 32.1974C42.7998 43.2544 53.1772 51.4576 65.4918 51.4576C65.7108 51.4576 65.9299 51.4576 66.1605 51.4464C66.3565 51.4464 66.5526 51.4353 66.7486 51.4241C66.7716 51.4241 66.7832 51.4241 66.8062 51.4241C80.8157 50.7526 92.0002 39.4829 92.0002 25.7288C92.0118 18.2978 88.7487 11.5942 83.5484 6.89385Z" fill="#303732"/>
<path d="M21.3195 24.106C21.6077 23.7702 21.8499 23.3338 22.0689 22.8302L22.9107 20.7934C23.049 20.4688 23.1297 20.2002 23.1759 19.9652C23.245 19.6183 23.2335 19.3385 23.1528 19.1147C23.0721 18.8908 22.9683 18.723 22.8184 18.5999C22.6685 18.4768 22.4956 18.3872 22.2996 18.3425C22.1035 18.2977 21.919 18.2529 21.7461 18.2529H14.7586L10.5039 28.5713H13.94L15.2314 25.4601L18.5637 25.4713C18.8404 25.4713 19.1402 25.4266 19.4631 25.3482C19.7859 25.2587 20.1088 25.1244 20.4201 24.923C20.7314 24.7215 21.0312 24.4529 21.3195 24.106ZM19.636 20.3457C19.613 20.48 19.5553 20.6591 19.4746 20.8493L18.6559 22.7966C18.506 23.1659 18.3446 23.4009 18.1947 23.5128C18.0333 23.6248 17.8373 23.6807 17.5951 23.6807L15.9578 23.6695L17.5029 19.9428L19.2325 19.954C19.4054 19.954 19.5207 19.9876 19.5784 20.0323C19.6475 20.0883 19.6591 20.2002 19.636 20.3457Z" fill="#303732"/>
<path d="M24.8713 26.3886C24.8829 26.299 24.9174 26.1983 24.9751 26.0864L25.7822 24.1055H28.6303L29.3451 22.3597H26.4971L27.1428 20.8041C27.2466 20.5579 27.3734 20.3564 27.5233 20.211C27.6848 20.0655 27.8577 19.9871 28.0653 19.9871L30.8326 19.9983L31.5359 18.2637H26.4279C25.7822 18.2637 25.2288 18.4651 24.756 18.9016C24.2948 19.338 23.9258 19.8864 23.6376 20.5355L21.2738 26.2766C21.1355 26.6012 21.0548 26.881 21.0086 27.116C20.9279 27.5525 20.974 27.9106 21.1355 28.1792C21.3084 28.4478 21.6543 28.5821 22.1617 28.5821H27.2697L27.9845 26.881L25.3671 26.8698C24.9866 26.8474 24.8137 26.6907 24.8713 26.3886Z" fill="#303732"/>
<path d="M32.4799 26.3886C32.503 26.299 32.526 26.1983 32.5837 26.0864L33.3908 24.1055H36.2388L36.9537 22.3597H34.1057L34.7514 20.8041C34.8552 20.5579 34.982 20.3564 35.1319 20.211C35.2818 20.0655 35.4663 19.9871 35.6738 19.9871L38.4412 19.9983L39.1445 18.2637H34.0365C33.3908 18.2637 32.8374 18.4651 32.3646 18.9016C31.9034 19.338 31.5229 19.8864 31.2577 20.5355L28.8939 26.2766C28.7556 26.6012 28.6749 26.881 28.6287 27.116C28.548 27.5525 28.5942 27.9106 28.7556 28.1792C28.9285 28.4478 29.2629 28.5821 29.7818 28.5821H34.8898L35.6047 26.881L32.9873 26.8586C32.5952 26.8474 32.4223 26.6907 32.4799 26.3886Z" fill="#303732"/>
<path d="M45.221 27.9903C45.6822 27.5875 46.0627 27.0279 46.3509 26.3116L48.7147 20.5705C48.8415 20.2572 48.9338 19.9886 48.9799 19.7535C49.0721 19.2947 49.0145 18.9366 48.8415 18.6792C48.6686 18.4106 48.3227 18.2651 47.8384 18.2539H40.0438L35.7891 28.5723H43.5836C44.2178 28.5723 44.7597 28.4044 45.221 27.9903ZM42.5344 26.7033C42.3729 26.8153 42.1654 26.8824 41.9002 26.8824L39.9861 26.8712L42.8457 19.9662H44.8981C45.0365 19.9662 45.1403 20.0109 45.1979 20.1117C45.2556 20.2124 45.2671 20.3355 45.2325 20.5034C45.221 20.5593 45.1979 20.6377 45.1633 20.7496L42.9495 26.1102C42.8342 26.39 42.6958 26.5914 42.5344 26.7033Z" fill="#303732"/>
<path d="M10.3992 22.7523C9.1424 22.7523 7.88558 22.7523 6.62876 22.7523C6.16754 22.7523 6.02918 22.4613 6.2252 21.9465C6.40968 21.4653 6.6057 20.9841 6.80172 20.5028C7.15916 19.6299 7.79334 19.2606 8.53129 19.5068C8.73883 19.574 8.81954 19.7978 8.77342 20.0552C8.75036 20.2007 8.69271 20.3573 8.63506 20.4916C8.51975 20.7938 8.41598 21.1184 8.28915 21.4429L12.1634 21.4317C12.2556 21.4317 12.394 21.3086 12.4286 21.2079C12.6361 20.7267 12.8206 20.2454 12.9936 19.7642C13.3279 18.8129 13.0397 18.2422 12.2095 18.2422C11.2063 18.2422 1.42853 18.2422 1.42853 18.2422L3.25034 19.1934C2.95055 19.9097 2.45474 21.1184 2.22413 21.7227C2.08577 22.092 1.93587 22.4613 1.85516 22.853C1.71679 23.4909 2.01658 23.9386 2.54698 23.9945C2.67382 24.0057 2.80065 24.0169 2.92749 24.0169C4.08053 24.0169 5.24511 24.0169 6.39815 24.0169C6.98621 24.0169 7.12457 24.2855 6.8709 24.9346C6.70947 25.3487 6.54805 25.7739 6.37509 26.1992C6.01765 27.0945 5.57949 27.3967 4.79542 27.296C4.38032 27.2512 4.25349 26.9826 4.42645 26.5014C4.56481 26.1321 4.70318 25.7292 4.85307 25.3375H1.00191C0.840479 25.3375 0.748235 25.4718 0.702113 25.5725C0.494565 26.0425 0.310079 26.5349 0.137122 27.0162C-0.208791 27.9451 0.114062 28.583 0.944253 28.583H8.10466C8.91179 28.583 9.58055 28.0905 9.98412 27.2512C10.4569 26.2664 10.8489 25.2256 11.2179 24.1848C11.5061 23.3454 11.1372 22.7523 10.3992 22.7523Z" fill="#303732"/>
<path d="M46.6279 28.5715H59.6227C60.5336 28.5715 61.2716 27.956 61.7213 26.8704C62.7705 24.2628 65.0075 18.5553 65.0997 18.2643H61.9288C61.4907 18.2419 61.2831 18.4545 61.0871 18.9358C60.1531 21.2971 59.1961 23.6473 58.2391 25.9975C57.7317 27.2509 57.455 27.4188 56.302 27.2061C57.4896 24.2628 58.6888 21.2636 59.8995 18.2643H56.0944C55.9906 18.5105 53.869 23.748 52.912 26.0982C52.4508 27.2173 52.0011 27.4747 51.0326 27.1278C52.2087 24.2069 53.3848 21.2636 54.5955 18.2643H49.3606L50.5252 18.8686C50.5252 18.8798 48.5074 23.9047 47.4927 26.4116L46.6279 28.5715Z" fill="#303732"/>
<path d="M71.9153 28.5713C72.0882 28.5601 72.388 28.3699 72.4687 28.1684C73.5756 25.4937 74.7287 22.7295 75.801 20.0435C76.2853 18.8237 75.9855 18.2641 74.9132 18.2529H68.3985C67.1993 18.2529 66.5075 18.7453 65.9656 20.0995C65.1008 22.2482 62.8177 27.8663 62.541 28.5713H66.1846C66.3576 28.5601 66.6228 28.3251 66.7266 28.1237C67.0609 27.4074 67.3377 26.6688 67.6259 25.9302C67.7758 25.5497 67.9603 25.3818 68.3062 25.4154H69.5746L68.3062 28.5713H71.9153ZM68.3639 24.0948C68.9058 22.763 69.3786 21.5767 69.8744 20.4129C70.1626 19.7302 70.67 19.5511 71.2234 19.6183C71.627 19.6742 71.7884 19.954 71.5924 20.4464C71.1658 21.532 70.7276 22.6175 70.2664 23.6919C70.1857 23.871 69.9205 24.0724 69.7475 24.0948H68.3639Z" fill="#303732"/>
<path d="M55.5746 34.8276C55.5746 34.85 55.5631 34.8724 55.5401 34.9059L54.2141 38.1962H56.0705L57.1774 35.4655C57.2581 35.2864 57.3157 35.1186 57.3503 34.9731C57.3849 34.8276 57.4195 34.7045 57.4426 34.5814C57.4772 34.3911 57.4772 34.2344 57.4426 34.1225C57.408 33.9994 57.3619 33.9211 57.2811 33.8651C57.212 33.8092 57.1197 33.7644 57.0044 33.742C56.8891 33.7196 56.7738 33.7085 56.647 33.7085L50.1207 33.6973H48.518L49.6941 34.3016L48.126 38.185H49.9939L51.3199 34.8947C51.4122 34.6821 51.539 34.5702 51.7004 34.5702H52.3692C52.496 34.5702 52.5537 34.6373 52.5306 34.7604L52.5191 34.8164C52.5191 34.8388 52.5075 34.8612 52.4845 34.8947L51.1815 38.1962H53.0495L54.3755 34.9059C54.4677 34.6933 54.5946 34.5814 54.756 34.5814H55.4247C55.5516 34.5814 55.6092 34.6485 55.5862 34.7716L55.5746 34.8276Z" fill="#303732"/>
<path d="M57.6389 38.1957H60.8098C61.0404 38.1957 61.2364 38.1733 61.4094 38.1174C61.5823 38.0614 61.7322 37.9831 61.8706 37.8712C62.009 37.7593 62.1243 37.6138 62.228 37.4459C62.3318 37.278 62.4356 37.0766 62.5278 36.8416L63.2427 35.0622C63.3465 34.8048 63.4157 34.5921 63.4387 34.4354C63.4733 34.1892 63.4387 33.999 63.3119 33.8871C63.1851 33.764 62.9544 33.708 62.6201 33.708H59.4492C59.2186 33.708 59.0226 33.7304 58.8496 33.7863C58.6767 33.8423 58.5268 33.9206 58.3884 34.0326C58.25 34.1445 58.1347 34.29 58.0309 34.4578C57.9272 34.6257 57.8234 34.8271 57.7312 35.0622L57.0163 36.8416C56.9125 37.099 56.8433 37.3116 56.8202 37.4683C56.7857 37.7145 56.8203 37.9047 56.9471 38.0167C57.0624 38.1398 57.293 38.1957 57.6389 38.1957ZM58.9995 36.9535L59.8066 34.9391C59.8528 34.8159 59.9104 34.7152 59.9796 34.6593C60.0488 34.6033 60.1295 34.5697 60.2448 34.5697H61.0865C61.2479 34.5697 61.3287 34.6369 61.3056 34.76C61.2941 34.8159 61.2825 34.8719 61.2479 34.9279L60.4408 36.9423C60.3947 37.0654 60.337 37.1661 60.2679 37.2221C60.1987 37.278 60.1064 37.3116 59.9911 37.3116H59.1494C58.9995 37.3116 58.9303 37.2445 58.9534 37.1214C58.9534 37.0766 58.9764 37.0206 58.9995 36.9535Z" fill="#303732"/>
<path d="M64.9969 36.954L65.9539 34.5814H67.2338L67.5912 33.6973H66.3113L66.7034 32.7236H64.674L63.0252 36.7861C62.9329 36.9987 62.8868 37.1778 62.8637 37.3345C62.8407 37.5023 62.8407 37.6366 62.8753 37.7485C62.9099 37.8604 62.956 37.95 63.0367 38.0059C63.1174 38.0731 63.2096 38.1178 63.3134 38.1402C63.4172 38.1626 63.544 38.1738 63.6709 38.1738H65.8847L66.2421 37.2897H65.2505C65.1122 37.2897 65.0315 37.2785 64.9853 37.2561C64.9392 37.2337 64.9161 37.189 64.9277 37.1218C64.9277 37.0994 64.9392 37.0659 64.9507 37.0323C64.9623 37.0323 64.9738 36.9987 64.9969 36.954Z" fill="#303732"/>
<path d="M67.417 38.2074H70.5879C70.8185 38.2074 71.0145 38.1851 71.1875 38.1291C71.3605 38.0731 71.5103 37.9948 71.6487 37.8829C71.7871 37.771 71.9024 37.6255 72.0062 37.4576C72.1099 37.2898 72.2137 37.0883 72.306 36.8533L73.0208 35.0739C73.1246 34.8165 73.1938 34.6038 73.2169 34.4472C73.2514 34.201 73.2169 34.0107 73.09 33.8988C72.9632 33.7757 72.7326 33.7197 72.3867 33.7197H69.2158C68.9852 33.7197 68.7892 33.7421 68.6162 33.7981C68.4433 33.854 68.2934 33.9324 68.155 34.0443C68.0166 34.1562 67.9013 34.2905 67.7975 34.4695C67.6938 34.6374 67.59 34.8389 67.4978 35.0739L66.7829 36.8533C66.6791 37.1107 66.6099 37.3233 66.5869 37.48C66.5523 37.7262 66.5869 37.9165 66.7137 38.0284C66.8405 38.1403 67.0711 38.2074 67.417 38.2074ZM68.7776 36.9652L69.5848 34.962C69.6309 34.8389 69.6885 34.7381 69.7577 34.6822C69.8154 34.6262 69.9076 34.5927 70.0229 34.5927H70.8646C71.0261 34.5927 71.1068 34.6598 71.0837 34.7829C71.0722 34.8389 71.0607 34.8948 71.0261 34.9508L70.2189 36.9652C70.1728 37.0995 70.1152 37.189 70.046 37.245C69.9768 37.3009 69.8846 37.3345 69.7693 37.3345H68.9275C68.7776 37.3345 68.7085 37.2674 68.7315 37.1443C68.7315 37.0883 68.7546 37.0324 68.7776 36.9652Z" fill="#303732"/>
<path d="M75.7541 34.9732C75.8117 34.8389 75.8694 34.7381 75.9386 34.6822C76.0078 34.6262 76.1 34.6038 76.2268 34.6038H77.2876L77.6451 33.7197H75.4082C74.9239 33.7197 74.5203 33.8652 74.1859 34.1562C73.8516 34.4472 73.5864 34.85 73.3903 35.3537L72.2373 38.2186H74.4281L75.7541 34.9732Z" fill="#303732"/>
<path d="M79.9492 34.6934C80.0184 34.6262 80.1337 34.6038 80.3067 34.6038H81.2061L81.5635 33.7197H78.8193C78.6348 33.7197 78.4618 33.7421 78.3004 33.7981C78.139 33.854 77.9775 33.9659 77.8046 34.145C77.597 34.3688 77.4817 34.615 77.4356 34.8948C77.4125 35.0627 77.4125 35.2194 77.4471 35.3537L77.8161 36.7861C77.8276 36.8421 77.8392 36.8869 77.8276 36.9428C77.8161 37.0324 77.77 37.1219 77.6893 37.2002C77.6086 37.2898 77.4933 37.3345 77.3434 37.3345H76.4209L76.0635 38.2186H78.9461C79.1306 38.2186 79.3035 38.1851 79.4534 38.1291C79.6149 38.062 79.7648 37.9389 79.9146 37.7598C80.0184 37.6367 80.0876 37.5248 80.1337 37.4129C80.1798 37.3121 80.2029 37.2002 80.226 37.0995C80.249 36.9988 80.249 36.8981 80.249 36.8197C80.2375 36.7302 80.226 36.6295 80.1914 36.5064L79.8455 35.1186C79.8339 35.0963 79.8339 35.0739 79.8224 35.0403C79.8224 35.0067 79.8224 34.9732 79.8224 34.9396C79.8455 34.8389 79.8801 34.7605 79.9492 34.6934Z" fill="#303732"/>
</svg>
