<svg width="136" height="27" viewBox="0 0 136 27" fill="none" xmlns="http://www.w3.org/2000/svg">
<path d="M45.1689 20.4332C45.0117 20.4332 44.9556 20.3801 44.9065 20.2179L42.7557 12.5389H42.7031L40.5523 20.2179C40.4997 20.3765 40.4471 20.4332 40.2899 20.4332H37.7714C37.6143 20.4332 37.5581 20.3801 37.509 20.2179L33.8369 6.88006C33.8369 6.77385 33.8369 6.66477 33.9941 6.66477H37.2992C37.3622 6.65834 37.4253 6.67739 37.4744 6.71774C37.5236 6.75809 37.555 6.81645 37.5616 6.88006L39.2928 14.8749H39.3454L41.4471 6.88006C41.4997 6.72146 41.5523 6.66477 41.7095 6.66477H43.7557C43.9129 6.66477 43.9691 6.71787 44.0182 6.88006L46.223 14.8734H46.2756L47.9491 6.88006C47.9557 6.81645 47.9871 6.75809 48.0363 6.71774C48.0855 6.67739 48.1485 6.65834 48.2116 6.66477H51.5166C51.6219 6.66477 51.6738 6.77098 51.6738 6.88006L48.0017 20.2215C47.9491 20.3801 47.8965 20.4368 47.7393 20.4368H45.1689V20.4332ZM54.2975 20.4332C54.2419 20.4302 54.1893 20.4066 54.1499 20.3668C54.1105 20.3271 54.0871 20.274 54.0842 20.2179V6.88006C54.0871 6.82392 54.1105 6.77085 54.1499 6.73109C54.1893 6.69133 54.2419 6.6677 54.2975 6.66477H59.7534C63.0584 6.66477 64.7896 8.57017 64.7896 11.2176C64.7896 13.8651 63.0584 15.8229 59.7534 15.8229H57.7619C57.6567 15.8229 57.6567 15.876 57.6567 15.9291V20.1633C57.6538 20.2195 57.6303 20.2725 57.5909 20.3123C57.5515 20.3521 57.4989 20.3757 57.4433 20.3786H54.2968L54.2975 20.4332ZM61.2747 11.275C61.2747 10.322 60.6453 9.73996 59.5436 9.73996H57.7591C57.6538 9.73996 57.6538 9.79307 57.6538 9.84618V12.7046C57.6538 12.8109 57.7065 12.8108 57.7591 12.8108H59.5428C59.7594 12.8408 59.9798 12.8234 60.1891 12.7598C60.3985 12.6963 60.5918 12.588 60.756 12.4424C60.9202 12.2968 61.0514 12.1173 61.1408 11.916C61.2302 11.7147 61.2756 11.4963 61.274 11.2758L61.2747 11.275ZM69.4588 17.0451C69.1423 15.9276 69.0181 14.7637 69.0918 13.6039C69.0494 12.445 69.173 11.2859 69.4588 10.1627C69.7742 9.20695 70.3797 8.37564 71.1895 7.78653C71.9992 7.19743 72.9722 6.88041 73.9705 6.88041C74.9688 6.88041 75.9417 7.19743 76.7515 7.78653C77.5612 8.37564 78.1667 9.20695 78.4821 10.1627C78.7909 11.2092 78.9151 12.3023 78.8491 13.3922C78.8491 13.5508 78.7439 13.657 78.5341 13.657H69.983C69.8777 13.657 69.8258 13.7632 69.8258 13.8723C69.782 14.8534 69.8882 15.8354 70.1409 16.7838C70.3708 17.6403 70.8896 18.389 71.6077 18.9011C72.3259 19.4131 73.1985 19.6565 74.0754 19.5892C74.8217 19.6133 75.563 19.4579 76.2381 19.1357C76.9131 18.8135 77.5024 18.3337 77.9573 17.7362C77.9734 17.7032 77.9973 17.6746 78.0269 17.653C78.0564 17.6313 78.0908 17.6173 78.1269 17.6121C78.163 17.6068 78.1999 17.6106 78.2343 17.6229C78.2687 17.6353 78.2995 17.656 78.3243 17.6831L78.4814 17.8417C78.5142 17.858 78.5425 17.8821 78.5639 17.9119C78.5853 17.9417 78.5993 17.9764 78.6044 18.0128C78.6096 18.0493 78.6059 18.0865 78.5937 18.1212C78.5814 18.1559 78.5609 18.1871 78.5341 18.212C78.03 18.9089 77.3647 19.471 76.5961 19.8492C75.8276 20.2275 74.9791 20.4104 74.1245 20.3822C73.0836 20.4594 72.0485 20.1689 71.1966 19.5604C70.3447 18.952 69.7291 18.0635 69.4552 17.0472L69.4588 17.0451ZM77.9573 12.9163C77.9785 12.9187 78 12.9163 78.0201 12.9092C78.0403 12.902 78.0586 12.8904 78.0737 12.8752C78.0888 12.86 78.1003 12.8415 78.1073 12.8212C78.1144 12.8008 78.1168 12.7792 78.1144 12.7577C78.1317 11.9868 78.0253 11.218 77.7994 10.4813C77.5858 9.64652 77.0934 8.9116 76.4053 8.40054C75.7172 7.88948 74.8754 7.63356 74.022 7.67596C73.1665 7.62298 72.3196 7.87481 71.6293 8.38753C70.9389 8.90024 70.4489 9.64127 70.2447 10.4813C70.0148 11.2171 69.9084 11.9865 69.9296 12.7577C69.9272 12.7792 69.9297 12.8008 69.9367 12.8212C69.9438 12.8415 69.9553 12.86 69.9704 12.8752C69.9855 12.8904 70.0038 12.902 70.024 12.9092C70.0441 12.9163 70.0656 12.9187 70.0868 12.9163H77.9573ZM91.0197 20.116C90.9846 20.1182 90.9496 20.1128 90.9167 20.1003C90.8839 20.0878 90.8541 20.0683 90.8293 20.0433C90.8044 20.0183 90.7852 19.9882 90.7728 19.955C90.7603 19.9219 90.7551 19.8865 90.7572 19.8511V12.119C90.7572 9.04885 89.4984 7.72547 87.0325 7.72547C86.5056 7.70369 85.9799 7.79327 85.4893 7.98847C84.9986 8.18366 84.5538 8.48016 84.1834 8.85896C83.8129 9.23775 83.525 9.69048 83.3381 10.1881C83.1512 10.6858 83.0694 11.2173 83.098 11.7487V19.9043C83.1002 19.9396 83.0949 19.975 83.0825 20.0081C83.0701 20.0413 83.0508 20.0714 83.026 20.0964C83.0012 20.1215 82.9714 20.1409 82.9385 20.1534C82.9057 20.1659 82.8706 20.1713 82.8356 20.1691H82.5731C82.5381 20.1713 82.503 20.1659 82.4702 20.1534C82.4373 20.1409 82.4075 20.1215 82.3827 20.0964C82.3579 20.0714 82.3386 20.0413 82.3262 20.0081C82.3138 19.975 82.3085 19.9396 82.3107 19.9043V7.51735C82.3085 7.482 82.3138 7.44659 82.3262 7.41346C82.3386 7.38033 82.3579 7.35024 82.3827 7.3252C82.4075 7.30015 82.4373 7.28072 82.4702 7.26819C82.503 7.25567 82.5381 7.25033 82.5731 7.25253H82.8356C82.8706 7.25033 82.9057 7.25567 82.9385 7.26819C82.9714 7.28072 83.0012 7.30015 83.026 7.3252C83.0508 7.35024 83.0701 7.38033 83.0825 7.41346C83.0949 7.44659 83.1002 7.482 83.098 7.51735V9.32013H83.1507C83.494 8.57062 84.0528 7.94266 84.7544 7.51787C85.4561 7.09308 86.2682 6.8911 87.0852 6.9382C89.9706 6.9382 91.5972 8.5795 91.5972 11.9145V19.8511C91.5994 19.8865 91.5941 19.9219 91.5817 19.955C91.5693 19.9882 91.55 20.0183 91.5252 20.0433C91.5004 20.0683 91.4706 20.0878 91.4377 20.1003C91.4049 20.1128 91.3698 20.1182 91.3348 20.116H91.0197ZM95.4293 23.451C95.324 23.2923 95.324 23.133 95.4819 23.0806L95.6953 22.922C95.8525 22.8158 95.9577 22.8689 96.0623 23.0282C96.4678 23.5405 96.989 23.9473 97.5824 24.2144C98.1758 24.4815 98.824 24.6011 99.4726 24.5633C101.886 24.5633 103.46 23.3433 103.46 20.1698V17.9981H103.407C102.778 19.4277 101.676 20.4332 99.42 20.4332C98.4726 20.4788 97.5376 20.2005 96.7664 19.6433C95.9952 19.0862 95.4329 18.2827 95.1704 17.363C94.8337 16.1767 94.692 14.9427 94.7508 13.7101C94.7185 12.4785 94.8598 11.2486 95.1704 10.0572C95.4327 9.13896 95.9939 8.3367 96.7635 7.77981C97.5331 7.22292 98.4662 6.94388 99.4122 6.98771C101.668 6.98771 102.77 7.99245 103.399 9.42275H103.452V7.56974C103.45 7.53439 103.455 7.49898 103.467 7.46585C103.48 7.43272 103.499 7.40263 103.524 7.37759C103.549 7.35254 103.579 7.33311 103.611 7.32058C103.644 7.30805 103.679 7.30272 103.714 7.30492H103.977C104.012 7.30272 104.047 7.30805 104.08 7.32058C104.113 7.33311 104.142 7.35254 104.167 7.37759C104.192 7.40263 104.211 7.43272 104.224 7.46585C104.236 7.49898 104.241 7.53439 104.239 7.56974V20.2215C104.239 23.7682 102.351 25.3564 99.4129 25.3564C98.6479 25.3721 97.8899 25.2081 97.1985 24.8774C96.5072 24.5467 95.9015 24.0584 95.4293 23.451ZM103.089 17.0458C103.391 15.9437 103.515 14.7996 103.456 13.6577C103.511 12.5159 103.387 11.3724 103.089 10.2696C102.881 9.48853 102.413 8.80369 101.763 8.33104C101.113 7.85838 100.321 7.62696 99.521 7.67596C98.734 7.62267 97.9531 7.84701 97.3119 8.31057C96.6708 8.77414 96.2092 9.44812 96.0061 10.2172C95.6924 11.3177 95.5508 12.4608 95.5865 13.6053C95.5508 14.7498 95.6924 15.8929 96.0061 16.9934C96.2159 17.7586 96.6791 18.4282 97.3187 18.8906C97.9582 19.353 98.7355 19.5803 99.521 19.5347C100.315 19.6355 101.117 19.4373 101.775 18.978C102.433 18.5188 102.899 17.8307 103.086 17.0458H103.089ZM108.65 3.2293C108.615 3.23151 108.579 3.22617 108.547 3.21364C108.514 3.20111 108.484 3.18168 108.459 3.15664C108.434 3.13159 108.415 3.10151 108.403 3.06838C108.39 3.03525 108.385 2.99983 108.387 2.96448V1.90593C108.385 1.87058 108.39 1.83516 108.403 1.80203C108.415 1.7689 108.434 1.73882 108.459 1.71377C108.484 1.68873 108.514 1.6693 108.547 1.65677C108.579 1.64424 108.615 1.6389 108.65 1.64111H109.279C109.314 1.6389 109.349 1.64424 109.382 1.65677C109.415 1.6693 109.445 1.68873 109.469 1.71377C109.494 1.73882 109.514 1.7689 109.526 1.80203C109.538 1.83516 109.544 1.87058 109.541 1.90593V3.01759C109.544 3.05294 109.538 3.08836 109.526 3.12149C109.514 3.15461 109.494 3.1847 109.469 3.20975C109.445 3.23479 109.415 3.25422 109.382 3.26675C109.349 3.27928 109.314 3.28462 109.279 3.28241H108.65V3.2293ZM108.863 20.116C108.828 20.1182 108.793 20.1128 108.76 20.1003C108.727 20.0878 108.697 20.0683 108.673 20.0433C108.648 20.0183 108.628 19.9882 108.616 19.955C108.604 19.9219 108.598 19.8865 108.601 19.8511V7.51735C108.598 7.482 108.604 7.44659 108.616 7.41346C108.628 7.38033 108.648 7.35024 108.673 7.3252C108.697 7.30015 108.727 7.28072 108.76 7.26819C108.793 7.25567 108.828 7.25033 108.863 7.25253H109.125C109.16 7.25033 109.196 7.25567 109.228 7.26819C109.261 7.28072 109.291 7.30015 109.316 7.3252C109.341 7.35024 109.36 7.38033 109.372 7.41346C109.385 7.44659 109.39 7.482 109.388 7.51735V19.8511C109.39 19.8865 109.385 19.9219 109.372 19.955C109.36 19.9882 109.341 20.0183 109.316 20.0433C109.291 20.0683 109.261 20.0878 109.228 20.1003C109.196 20.1128 109.16 20.1182 109.125 20.116H108.863ZM122.447 20.116C122.412 20.1182 122.377 20.1128 122.344 20.1003C122.312 20.0878 122.282 20.0683 122.257 20.0433C122.232 20.0183 122.213 19.9882 122.201 19.955C122.188 19.9219 122.183 19.8865 122.185 19.8511V12.119C122.185 9.04885 120.926 7.72547 118.46 7.72547C117.933 7.70369 117.408 7.79327 116.917 7.98847C116.426 8.18366 115.982 8.48016 115.611 8.85896C115.241 9.23775 114.953 9.69048 114.766 10.1881C114.579 10.6858 114.497 11.2173 114.526 11.7487V19.9043C114.528 19.9396 114.523 19.975 114.51 20.0081C114.498 20.0413 114.479 20.0714 114.454 20.0964C114.429 20.1215 114.399 20.1409 114.366 20.1534C114.333 20.1659 114.298 20.1713 114.263 20.1691H114.001C113.966 20.1713 113.931 20.1659 113.898 20.1534C113.865 20.1409 113.835 20.1215 113.81 20.0964C113.786 20.0714 113.766 20.0413 113.754 20.0081C113.742 19.975 113.736 19.9396 113.738 19.9043V7.51735C113.736 7.482 113.742 7.44659 113.754 7.41346C113.766 7.38033 113.786 7.35024 113.81 7.3252C113.835 7.30015 113.865 7.28072 113.898 7.26819C113.931 7.25567 113.966 7.25033 114.001 7.25253H114.263C114.298 7.25033 114.333 7.25567 114.366 7.26819C114.399 7.28072 114.429 7.30015 114.454 7.3252C114.479 7.35024 114.498 7.38033 114.51 7.41346C114.523 7.44659 114.528 7.482 114.526 7.51735V9.32013H114.578C114.922 8.57062 115.481 7.94266 116.182 7.51787C116.884 7.09308 117.696 6.8911 118.513 6.9382C121.398 6.9382 123.025 8.5795 123.025 11.9145V19.8511C123.027 19.8865 123.022 19.9219 123.009 19.955C122.997 19.9882 122.978 20.0183 122.953 20.0433C122.928 20.0683 122.898 20.0878 122.865 20.1003C122.833 20.1128 122.798 20.1182 122.763 20.116H122.447ZM126.592 17.0458C126.275 15.9284 126.151 14.7644 126.225 13.6046C126.182 12.4457 126.306 11.2867 126.592 10.1634C126.907 9.20767 127.513 8.37636 128.322 7.78725C129.132 7.19815 130.105 6.88113 131.103 6.88113C132.102 6.88113 133.075 7.19815 133.884 7.78725C134.694 8.37636 135.3 9.20767 135.615 10.1634C135.924 11.2099 136.048 12.303 135.982 13.3929C135.982 13.5515 135.877 13.6577 135.667 13.6577H127.113C127.008 13.6577 126.956 13.7639 126.956 13.873C126.912 14.8541 127.018 15.8361 127.271 16.7846C127.501 17.641 128.02 18.3897 128.738 18.9018C129.456 19.4139 130.329 19.6572 131.206 19.5899C131.952 19.6141 132.693 19.4586 133.368 19.1364C134.043 18.8142 134.633 18.3345 135.087 17.7369C135.104 17.7039 135.127 17.6753 135.157 17.6537C135.187 17.6321 135.221 17.618 135.257 17.6128C135.293 17.6076 135.33 17.6113 135.364 17.6237C135.399 17.636 135.43 17.6567 135.454 17.6838L135.612 17.8424C135.644 17.8587 135.673 17.8828 135.694 17.9126C135.715 17.9425 135.729 17.9771 135.735 18.0136C135.74 18.05 135.736 18.0872 135.724 18.1219C135.712 18.1566 135.691 18.1878 135.664 18.2127C135.16 18.9097 134.495 19.4717 133.726 19.8499C132.958 20.2282 132.109 20.4112 131.255 20.3829C128.894 20.3829 127.267 19.2713 126.585 17.0479L126.592 17.0458ZM135.038 12.9171C135.06 12.9195 135.081 12.917 135.101 12.9099C135.121 12.9028 135.14 12.8911 135.155 12.8759C135.17 12.8607 135.181 12.8422 135.188 12.8219C135.195 12.8015 135.198 12.7799 135.195 12.7585C135.213 11.9875 135.106 11.2187 134.88 10.482C134.667 9.64723 134.175 8.91232 133.486 8.40126C132.798 7.8902 131.956 7.63428 131.103 7.67667C130.248 7.62369 129.401 7.87553 128.71 8.38824C128.02 8.90095 127.53 9.64198 127.326 10.482C127.096 11.2179 126.989 11.9872 127.011 12.7585C127.008 12.7799 127.011 12.8015 127.018 12.8219C127.025 12.8422 127.036 12.8607 127.051 12.8759C127.067 12.8911 127.085 12.9028 127.105 12.9099C127.125 12.917 127.147 12.9195 127.168 12.9171H135.038Z" fill="#303732"/>
<path d="M9.07599 26.9971H17.6819V20.4334L15.5837 18.3162H11.1243L9.07812 20.4334L9.07599 26.9971ZM20.1989 9.15812L18.1527 11.2228V15.7757L20.1989 17.8397H26.7564V9.15597L20.1989 9.15812ZM17.6797 0H9.07386V6.61687L11.1215 8.68375H15.5809L17.679 6.61903L17.6797 0ZM26.755 26.9971V20.4334L24.7088 18.3162H18.1513V27L26.755 26.9971ZM2.04621 0L0 2.06472V8.68375H8.60587V0H2.04621ZM18.152 0V6.61687L20.1989 8.68375H26.7564V0H18.152ZM13.3775 14.7695C13.1384 14.7695 12.9046 14.698 12.7058 14.5639C12.5069 14.4299 12.352 14.2393 12.2604 14.0164C12.1689 13.7935 12.145 13.5482 12.1916 13.3115C12.2383 13.0748 12.3535 12.8575 12.5225 12.6868C12.6916 12.5162 12.9071 12.4 13.1416 12.3529C13.3762 12.3059 13.6193 12.33 13.8402 12.4224C14.0611 12.5147 14.25 12.6711 14.3828 12.8717C14.5157 13.0723 14.5866 13.3082 14.5866 13.5495C14.5836 13.8722 14.4553 14.1807 14.2292 14.4089C14.0031 14.6371 13.6973 14.7666 13.3775 14.7695ZM8.60587 9.15812H0V17.8419H6.5049L8.60302 15.7772L8.60587 9.15812ZM8.60587 20.4334L6.50774 18.3162H0V27H6.5049L8.60302 24.9353L8.60587 20.4334Z" fill="#303732"/>
</svg>
